<?xml version="1.0" encoding="UTF-8" standalone="no"?>
<!-- Created with Inkscape (http://www.inkscape.org/) -->

<svg
   width="99.999992cm"
   height="100cm"
   viewBox="0 0 662.29095 662.291"
   version="1.1"
   id="svg4564"
   inkscape:version="1.2.2 (732a01da63, 2022-12-09)"
   sodipodi:docname="DMXC3_Nanoleaf_Plugin.svg"
   inkscape:export-filename="DMXC3_Nanoleaf_Plugin.png"
   inkscape:export-xdpi="3.2512002"
   inkscape:export-ydpi="3.2512002"
   xml:space="preserve"
   xmlns:inkscape="http://www.inkscape.org/namespaces/inkscape"
   xmlns:sodipodi="http://sodipodi.sourceforge.net/DTD/sodipodi-0.dtd"
   xmlns="http://www.w3.org/2000/svg"
   xmlns:svg="http://www.w3.org/2000/svg"
   xmlns:rdf="http://www.w3.org/1999/02/22-rdf-syntax-ns#"
   xmlns:cc="http://creativecommons.org/ns#"
   xmlns:dc="http://purl.org/dc/elements/1.1/"><title
     id="title5722">DMXControl_Logo_2018</title><defs
     id="defs4558" /><sodipodi:namedview
     id="base"
     pagecolor="#ffffff"
     bordercolor="#666666"
     borderopacity="1.0"
     inkscape:pageopacity="0.0"
     inkscape:pageshadow="2"
     inkscape:zoom="0.125"
     inkscape:cx="3056"
     inkscape:cy="1672"
     inkscape:document-units="mm"
     inkscape:current-layer="svg4564"
     showgrid="false"
     units="cm"
     fit-margin-top="0"
     fit-margin-left="0"
     fit-margin-right="0"
     fit-margin-bottom="0"
     inkscape:window-width="1920"
     inkscape:window-height="1057"
     inkscape:window-x="-8"
     inkscape:window-y="-8"
     inkscape:window-maximized="1"
     inkscape:showpageshadow="2"
     inkscape:pagecheckerboard="0"
     inkscape:deskcolor="#d1d1d1" /><metadata
     id="metadata4561"><rdf:RDF><cc:Work
         rdf:about=""><dc:format>image/svg+xml</dc:format><dc:type
           rdf:resource="http://purl.org/dc/dcmitype/StillImage" /><dc:title>DMXControl_Logo_2018</dc:title></cc:Work></rdf:RDF></metadata><g
     style="fill:none"
     id="g212"
     transform="matrix(44.135812,0,0,44.135812,-0.87294388,-32.498455)"><path
       d="M 12.5384,15.6885 C 11.7026,16.1091 11.7026,13.6025 11.1008,14.0568 8.4094,15.84 8.17537,15.3857 7.08878,15.0156 5.63442,14.5783 2.14061,13.1483 1.03731,10.8941 -0.0492845,8.06791 0.836705,3.81179 0.987156,3.15571 1.42179,1.33887 2.50838,1.00242 3.36094,0.817372 6.50369,0.346339 11.2847,2.04542 12.2543,2.90337 c 1.237,1.043 2.6914,7.14963 2.123,8.94963 -0.1839,0.572 -2.0729,1.0935 -2.2735,1.514 -0.3845,0.5215 1.3374,1.9346 0.4346,2.3215 z M 5.43382,6.52023 C 5.85174,7.19314 6.67086,7.4623 7.23923,7.10902 7.8076,6.75575 7.92462,5.93144 7.5067,5.24171 7.08878,4.55199 6.26966,4.29965 5.70129,4.65292 5.13292,5.0062 5.0159,5.83051 5.43382,6.52023 Z m 0.2006,4.47477 c 0.41792,0.6729 1.22032,0.9421 1.80541,0.5888 C 8.02492,11.2306 8.12522,10.4063 7.7073,9.73335 7.28938,9.06044 6.48698,8.79128 5.90189,9.14456 5.3168,9.49783 5.2165,10.3221 5.63442,10.995 Z M 9.39569,8.69035 C 9.81361,9.36325 10.616,9.63241 11.2011,9.27914 11.7695,8.92586 11.8865,8.10156 11.4686,7.42865 11.0507,6.75575 10.2315,6.48659 9.66316,6.83986 9.09479,7.19314 8.97778,8.01744 9.39569,8.69035 Z"
       fill="#58b947"
       id="path203" /></g><g
     id="g4786"
     transform="matrix(0.04586382,0,0,-0.04586379,235.87197,927.0996)"
     style="display:inline;fill:#000000;stroke:none"
     inkscape:label="Spot_Background"><path
       style="fill:#e6e6e6;fill-opacity:1;stroke:#000000;stroke-width:0.343471;stroke-opacity:1"
       d="m 1408.0254,729.24219 -50.1465,0.34375 c -27.4777,0.34347 -71.7851,2.40457 -98.2324,5.15234 -26.4473,2.4043 -54.2695,6.18331 -61.4824,8.24414 -29.5386,8.58679 -49.8033,29.1936 -64.9161,65.60156 -7.5563,18.54746 -7.5558,19.23473 -6.5253,219.47852 l 1.0312,200.9316 -17.5176,8.586 c -42.9339,20.6083 -115.74935,87.2415 -158.33982,144.2578 -49.45989,65.9465 -74.1911,117.811 -93.08203,195.4355 -10.99108,43.9644 -10.99108,113.6895 0,144.9454 5.83902,16.83 8.58789,35.7201 10.99219,75.9062 5.15207,84.1505 13.05242,125.3685 34.34766,175.1719 17.17357,39.8426 44.30605,88.6143 65.25781,116.4355 18.54746,24.73 80.37359,85.5243 105.10349,103.3848 9.9607,7.2129 19.2341,18.2053 26.1035,30.5703 16.1432,30.5689 44.3086,62.1671 75.5645,85.1797 15.7997,11.678 68.0058,49.4595 116.0918,83.8066 l 87.5859,62.8555 5.1524,20.6094 c 16.4866,62.1683 43.6201,96.5144 124.3359,157.6523 18.204,13.7389 42.5912,29.1956 53.9258,34.3477 14.0823,6.5259 23.3566,13.3956 29.5391,21.9824 4.8086,7.2129 21.2946,20.952 37.7812,31.5996 16.1432,10.3041 29.1953,19.577 29.1953,20.6074 0,1.3739 -16.4868,36.0647 -36.4082,77.2813 -86.2113,177.2312 -87.2427,179.6356 -75.9082,195.0918 11.3346,15.4562 18.8926,14.0818 209.1758,-34.3477 104.4153,-26.7907 179.9791,-44.6507 180.666,-42.5898 2.0608,5.4955 19.577,4.1211 56.6719,-5.4961 24.043,-5.839 36.7511,-10.9903 40.5293,-15.7988 4.4651,-5.4956 35.3787,-14.7698 150.7851,-43.9649 79.6854,-20.6083 146.3176,-38.4682 147.6914,-40.1855 1.3739,-1.3739 58.3914,-109.2248 126.7422,-239.4004 68.3509,-130.5191 127.7712,-240.7735 132.2364,-245.5821 11.3345,-12.3649 67.3203,-120.2148 67.3203,-129.832 0,-4.4651 19.2338,-44.6517 42.5898,-89.6465 126.741,-242.4907 186.5058,-357.2084 205.7402,-394.9902 l 21.295,-42.2481 -8.5879,-6.8691 c -4.8086,-3.7782 -12.3647,-9.6183 -16.4863,-13.3965 -4.4652,-3.7782 -13.0517,-6.8691 -18.8907,-6.8691 -6.1825,0 -57.7027,-3.0907 -115.0625,-6.5254 l -104.0722,-6.5254 -14.4258,-13.0527 c -7.8999,-6.8695 -28.5081,-26.447 -45.6817,-42.9336 l -31.2558,-29.8828 -2.4043,-34.002 c -3.0913,-42.5904 -6.5251,-54.9565 -18.2031,-68.6953 -9.2738,-10.6476 -10.9925,-10.9902 -42.5918,-13.3945 -31.5994,-2.0609 -33.3162,-1.7182 -42.5899,6.1816 l -9.9609,8.5879 6.1836,51.1758 c 8.2433,67.6638 7.8995,64.9157 2.0605,64.5722 -2.7478,-0.3434 -60.109,-35.7203 -127.0859,-78.6543 -83.4636,-53.5815 -127.4275,-80.0279 -139.1055,-83.1191 -20.2648,-5.4955 -53.5809,-5.8399 -83.4629,-1.0313 -17.517,3.0913 -22.6693,2.7484 -29.1953,-1.7167 l -8.2441,-5.1524 -2.4043,-219.8223 C 2075.0469,951.12504 2074.7048,947.6906 2055.127,913 2043.4489,892.39172 2023.8711,876.59153 1997.4238,866.63086 1959.642,852.54853 1806.1095,815.79833 1548.5059,759.8125 Z m -48.1074,86.28125 c 1.5671,-0.0912 3.3709,0.0158 5.5175,0.27344 3.0913,0.5152 31.5137,7.04138 74.877,17.13085 43.3633,10.08947 101.6682,23.74246 164.5234,38.51172 62.8553,14.94101 120.9881,29.0243 164.0508,39.71485 21.5314,5.34527 39.295,9.84303 51.9981,13.17578 12.703,3.33274 20.3448,5.50056 21.6328,6.1875 2.1896,1.11628 4.2991,2.47907 6.3183,4.07031 2.0193,1.59124 3.9473,3.41083 5.7774,5.43945 1.83,2.02863 3.5615,4.26687 5.1836,6.69532 1.6221,2.42845 3.1359,5.04718 4.5312,7.83789 1.3954,2.7907 2.6725,5.75375 3.8223,8.86914 1.1498,3.11539 2.1731,6.38264 3.0586,9.78515 0.8855,3.40252 1.6339,6.93973 2.2363,10.5918 0.6024,3.65207 1.0588,7.41915 1.3594,11.2832 0.5152,6.44006 1.5024,27.88546 2.6777,56.44726 1.1753,28.5618 2.5382,64.2393 3.8047,99.1445 1.2666,34.9053 2.4357,69.0393 3.2246,94.5098 0.7889,25.4706 1.1971,42.2776 0.9395,42.5352 -0.1718,0.1717 -5.3231,-2.1458 -13.5235,-6.0098 -8.2003,-3.8641 -19.4494,-9.2744 -31.8144,-15.2852 -9.789,-4.8944 -17.668,-8.7583 -24.3281,-11.8281 -6.6602,-3.0698 -12.1017,-5.3451 -17.0176,-7.0625 -2.458,-0.8587 -4.7849,-1.5784 -7.0664,-2.1875 -2.2816,-0.6091 -4.5168,-1.1068 -6.795,-1.5254 -4.5563,-0.8372 -9.2799,-1.3538 -14.8613,-1.7832 -5.3238,-0.4293 -9.8534,-0.9214 -13.959,-1.5976 -4.1055,-0.6762 -7.7861,-1.5361 -11.414,-2.6953 -3.6279,-1.1593 -7.2029,-2.6178 -11.0938,-4.4961 -3.8909,-1.8784 -8.0977,-4.1762 -12.9922,-7.0098 -8.1574,-4.5939 -16.1339,-8.9084 -23.9707,-12.959 -7.8368,-4.0505 -15.534,-7.8364 -23.1386,-11.373 -7.6047,-3.5367 -15.117,-6.8247 -22.5782,-9.877 -7.4611,-3.0523 -14.8712,-5.8693 -22.2773,-8.4668 -7.4061,-2.5975 -14.8065,-4.9762 -22.2461,-7.1484 -7.4396,-2.1722 -14.9187,-4.1377 -22.4805,-5.9141 -7.5617,-1.7764 -15.2061,-3.3633 -22.9785,-4.7734 -7.7724,-1.4101 -15.6725,-2.6435 -23.7441,-3.7168 -4.5081,-0.644 -10.2029,-1.1707 -16.7637,-1.586 -6.5608,-0.4152 -13.9879,-0.7206 -21.9629,-0.9218 -7.975,-0.2013 -16.4976,-0.2988 -25.248,-0.3008 -8.7505,0 -17.7299,0.093 -26.6172,0.2754 -8.8873,0.1824 -17.6828,0.4525 -26.0684,0.8047 -8.3855,0.3522 -16.3603,0.7858 -23.6055,1.2929 -7.2451,0.5072 -13.7605,1.089 -19.2265,1.7364 -5.466,0.6473 -9.8833,1.36 -12.9317,2.1328 -4.1216,1.0304 -8.0708,1.717 -11.1621,2.0176 -1.5456,0.1502 -2.8758,0.2045 -3.9062,0.1562 -1.0304,-0.048 -1.762,-0.1975 -2.1055,-0.4551 -0.2576,-0.3434 -0.5359,-5.3454 -0.8203,-14.0879 -0.2844,-8.7424 -0.5744,-21.2253 -0.8535,-36.5312 -0.5582,-30.6119 -1.0726,-72.5157 -1.416,-118.36916 -0.1718,-37.18077 -0.2798,-66.2475 -0.2637,-89.05078 0.016,-22.80328 0.1565,-39.34383 0.4785,-51.47266 0.161,-6.06441 0.3674,-11.0251 0.627,-15.11523 0.2596,-4.09013 0.5723,-7.30995 0.9453,-9.88867 0.373,-2.57872 0.8055,-4.51669 1.3066,-6.04688 0.5011,-1.53019 1.0709,-2.65311 1.7149,-3.59765 1.1163,-1.71736 2.1454,-3.09121 3.1972,-4.16993 1.0519,-1.07871 2.126,-1.86176 3.3282,-2.39843 1.2021,-0.53668 2.5325,-0.82674 4.0996,-0.91797 z"
       id="path5463"
       transform="matrix(2.9114499,0,0,-2.9114511,427.60277,14913.155)"
       inkscape:connector-curvature="0" /></g><g
     inkscape:label="Spot_Contour"
     id="g5480"
     transform="matrix(0.04586383,0,0,-0.04586382,235.87182,927.09969)"
     style="display:inline;fill:#000000;stroke:none"><path
       style="fill:#000000;fill-opacity:0.985981;stroke:#000000;stroke-opacity:1"
       id="path5466"
       d="m 4095,12774 c -77,-7 -158,-18 -179,-24 -86,-25 -145,-85 -189,-191 -22,-54 -22,-56 -19,-639 l 3,-585 -51,-25 c -125,-60 -337,-254 -461,-420 -144,-192 -216,-343 -271,-569 -32,-128 -32,-331 0,-422 17,-49 25,-104 32,-221 15,-245 38,-365 100,-510 50,-116 129,-258 190,-339 54,-72 234,-249 306,-301 29,-21 56,-53 76,-89 47,-89 129,-181 220,-248 46,-34 198,-144 338,-244 l 255,-183 15,-60 c 48,-181 127,-281 362,-459 53,-40 124,-85 157,-100 41,-19 68,-39 86,-64 14,-21 62,-61 110,-92 47,-30 85,-57 85,-60 0,-4 -48,-105 -106,-225 -251,-516 -254,-523 -221,-568 33,-45 55,-41 609,100 304,78 524,130 526,124 6,-16 57,-12 165,16 70,17 107,32 118,46 13,16 103,43 439,128 232,60 426,112 430,117 4,4 170,318 369,697 199,380 372,701 385,715 33,36 196,350 196,378 0,13 56,130 124,261 369,706 543,1040 599,1150 l 62,123 -25,20 c -14,11 -36,28 -48,39 -13,11 -38,20 -55,20 -18,0 -168,9 -335,19 l -303,19 -42,38 c -23,20 -83,77 -133,125 l -91,87 -7,99 c -9,124 -19,160 -53,200 -27,31 -32,32 -124,39 -92,6 -97,5 -124,-18 l -29,-25 18,-149 c 24,-197 23,-189 6,-188 -8,1 -175,104 -370,229 -243,156 -371,233 -405,242 -59,16 -156,17 -243,3 -51,-9 -66,-8 -85,5 l -24,15 -7,640 c -7,694 -8,704 -65,805 -34,60 -91,106 -168,135 -110,41 -557,148 -1307,311 l -409,89 -146,-1 c -80,-1 -209,-7 -286,-15 z m 702,-118 c 744,-160 1319,-296 1430,-337 67,-26 116,-75 144,-148 22,-54 23,-73 31,-651 5,-327 7,-614 6,-637 l -3,-43 -205,129 -205,130 -17,471 c -9,262 -21,493 -28,520 -6,27 -24,69 -40,93 -58,92 -32,83 -792,265 -381,91 -710,165 -730,166 -41,0 -78,-27 -106,-79 -15,-27 -17,-74 -14,-440 1,-225 7,-635 12,-910 5,-275 10,-696 10,-936 v -437 l -35,-6 c -19,-4 -56,-18 -83,-32 -26,-13 -64,-27 -84,-30 -34,-6 -38,-4 -61,33 -14,22 -50,90 -81,151 -54,108 -82,142 -118,142 -17,0 -18,17 -18,243 -1,413 -10,926 -20,1067 -5,74 -11,351 -12,615 -3,546 -3,548 76,630 56,59 59,59 421,88 167,14 217,8 522,-57 z m 303,-280 c 366,-87 677,-164 692,-172 51,-26 87,-98 94,-188 6,-75 34,-849 31,-852 -1,-1 -60,27 -132,62 -114,57 -139,66 -204,71 -62,5 -87,13 -144,46 -190,107 -346,162 -534,187 -105,15 -431,8 -502,-10 -24,-6 -46,-8 -50,-5 -3,4 -7,225 -9,492 -2,433 -1,488 14,510 13,20 22,24 47,21 18,-3 331,-76 697,-162 z m -198,-921 c 151,-20 232,-44 370,-108 115,-54 147,-77 110,-77 -40,0 -199,-52 -287,-95 -190,-91 -425,-266 -646,-483 l -87,-84 -7,293 c -4,162 -5,317 -3,346 l 3,52 57,-23 c 32,-13 106,-52 165,-87 87,-52 116,-64 148,-63 79,2 109,41 63,84 -20,18 -141,86 -271,152 -22,11 -67,22 -100,26 -52,6 -62,10 -62,26 0,23 32,33 144,45 125,14 283,12 403,-4 z m -422,-117 c 19,-6 46,-19 60,-28 14,-10 68,-39 120,-65 115,-57 126,-65 108,-76 -32,-21 -77,-6 -193,61 -66,39 -144,78 -172,87 -70,22 -74,48 -5,39 26,-4 63,-12 82,-18 z m -750,-117 c 0,-36 -5,-43 -69,-95 -119,-97 -274,-267 -351,-382 -135,-205 -263,-504 -301,-704 -16,-87 -25,-94 -34,-23 -14,121 23,325 91,500 76,199 287,478 470,624 63,50 171,119 186,119 4,0 8,-17 8,-39 z m 2030,-63 c 87,-44 118,-63 103,-66 -61,-9 -20,-66 82,-113 72,-34 131,-37 129,-7 -1,11 3,15 10,11 65,-39 264,-164 309,-196 l 58,-41 -90,-32 c -159,-57 -356,-172 -536,-315 -171,-135 -523,-507 -693,-732 -223,-296 -428,-691 -555,-1068 -91,-269 -116,-397 -120,-616 -1,-73 -3,-133 -4,-133 -1,0 -136,95 -300,212 -318,226 -388,287 -443,387 -19,34 -45,75 -57,90 -12,16 -27,50 -33,77 -15,65 -15,289 0,391 l 12,81 57,25 c 82,37 107,42 134,24 13,-8 59,-81 102,-162 60,-113 84,-149 108,-162 86,-44 272,42 269,125 0,16 -8,55 -17,86 -9,32 -15,58 -13,60 1,1 20,9 41,19 59,27 69,61 66,236 l -2,145 47,31 c 56,35 75,66 76,116 0,81 -45,158 -107,184 l -33,14 v 353 353 l 122,120 c 131,129 338,300 452,373 82,53 218,121 301,151 111,40 183,51 295,46 l 105,-4 z m -2030,-136 c 0,-80 -2,-88 -22,-97 -24,-11 -53,-49 -63,-83 -7,-23 26,-65 70,-89 19,-11 20,-24 24,-347 3,-311 2,-336 -14,-336 -33,0 -88,-34 -108,-67 -19,-34 -20,-34 -41,-16 -11,11 -39,31 -61,46 -23,15 -80,62 -127,106 -107,98 -122,104 -160,62 -35,-39 -37,-89 -7,-138 24,-38 187,-185 267,-240 39,-27 64,-37 95,-38 l 41,-1 23,-75 c 29,-93 29,-148 3,-181 -11,-14 -69,-62 -129,-107 -118,-88 -131,-107 -131,-188 v -44 l -46,33 c -54,38 -154,143 -214,222 -39,51 -51,60 -72,57 -15,-2 -23,81 -23,254 0,172 1,186 34,310 91,356 236,630 451,859 61,65 195,186 205,186 3,0 5,-39 5,-88 z m -4,-230 c -8,-7 -46,28 -46,43 0,7 10,25 23,41 l 22,29 3,-54 c 2,-29 1,-56 -2,-59 z m 3075,-73 c 34,-8 87,-34 156,-79 l 105,-67 -124,-6 c -151,-6 -257,-35 -408,-110 -233,-115 -398,-243 -675,-521 -361,-362 -574,-661 -810,-1137 -225,-456 -298,-725 -299,-1099 0,-161 2,-182 26,-257 14,-46 22,-83 18,-83 -4,0 -47,39 -95,88 -141,139 -185,260 -185,502 0,223 28,375 117,640 142,421 380,859 632,1160 188,226 459,502 608,621 238,189 490,312 703,343 123,18 168,18 231,5 z m 1012,-117 c 9,-11 20,-66 30,-151 l 14,-135 49,-45 c 27,-25 91,-85 142,-133 127,-119 121,-138 -36,-123 -68,6 -73,9 -69,27 10,38 -14,73 -129,189 l -116,116 -13,104 c -8,57 -15,120 -15,139 v 35 l 64,-3 c 44,-3 69,-9 79,-20 z m -638,-105 30,-16 -75,-1 c -92,-1 -207,-21 -279,-49 -140,-53 -411,-234 -631,-420 -143,-121 -381,-366 -493,-506 -258,-322 -589,-903 -690,-1210 -34,-103 -92,-344 -112,-465 -27,-170 -17,-445 21,-552 15,-43 13,-45 -23,-21 -34,23 -85,133 -113,248 -20,81 -22,105 -16,237 16,374 87,622 306,1059 152,305 306,549 485,769 407,504 864,857 1205,931 110,24 338,22 385,-4 z m 147,-93 c 16,-8 87,-53 159,-99 71,-47 138,-85 149,-85 10,0 25,9 34,21 14,21 16,19 80,-47 36,-38 64,-69 63,-70 -1,-1 -211,10 -466,23 -406,22 -465,23 -478,11 -8,-8 -99,-188 -202,-399 -186,-381 -188,-385 -286,-504 -258,-314 -477,-647 -673,-1025 -185,-357 -272,-630 -288,-905 -7,-107 -8,-112 -61,-217 -29,-60 -57,-108 -61,-108 -21,2 -160,110 -181,142 -13,20 -36,42 -51,48 -60,25 -94,170 -94,410 0,184 10,253 74,512 70,281 166,490 422,921 289,486 653,875 1103,1179 200,135 318,190 447,208 87,12 274,2 310,-16 z m -3958,-291 c 44,-42 108,-94 141,-115 79,-51 95,-72 95,-130 0,-42 -3,-48 -21,-48 -31,0 -55,16 -170,111 -115,95 -163,145 -174,179 -8,25 15,80 34,80 7,0 50,-35 95,-77 z m 3549,-59 c -3,-14 -859,-1734 -868,-1742 -9,-9 54,125 195,413 62,127 150,309 197,405 321,667 458,940 467,936 6,-2 10,-7 9,-12 z m 577,-29 c 201,-8 371,-15 378,-15 7,0 12,-6 12,-14 0,-22 26,-27 158,-33 100,-5 125,-3 135,9 10,12 54,13 346,2 183,-7 334,-14 336,-16 1,-2 -74,-150 -168,-330 -156,-301 -172,-326 -184,-308 -13,18 -26,20 -124,20 -60,0 -109,2 -109,5 0,3 56,118 125,255 69,137 125,256 125,264 0,8 -7,17 -15,20 -28,10 -1206,49 -1215,40 -5,-5 -75,-139 -156,-299 -81,-159 -149,-292 -151,-295 -3,-3 -82,-7 -176,-10 l -172,-5 -20,-40 c -11,-22 -124,-252 -250,-512 -127,-260 -233,-472 -236,-473 -32,-2 18,108 410,896 l 429,864 79,-6 c 43,-2 242,-11 443,-19 z M 3920,9871 c 42,-79 87,-152 100,-163 32,-26 83,-20 173,22 87,41 178,51 209,24 46,-42 64,-140 31,-170 -10,-8 -65,-48 -122,-87 -58,-40 -113,-84 -124,-98 -11,-16 -21,-50 -24,-85 -4,-51 1,-78 41,-202 25,-78 46,-153 46,-166 0,-60 -152,-123 -202,-83 -17,13 -168,305 -168,325 0,7 -6,12 -13,10 -8,-2 -26,12 -41,30 -44,51 -121,36 -128,-26 -4,-38 -73,-71 -150,-72 -57,0 -57,0 -83,43 -29,51 -33,106 -7,135 9,11 63,54 120,96 56,42 110,88 119,102 30,47 28,119 -6,229 -18,55 -35,130 -38,167 -6,64 -5,68 23,93 25,23 34,26 98,23 l 71,-3 z m 3970,-11 c 278,-11 520,-20 537,-20 h 33 l -127,-255 -128,-255 h -123 -122 l 14,35 c 20,47 11,44 -14,-5 l -20,-40 h -140 -141 l 16,30 c 8,16 15,33 15,37 -1,4 -10,-9 -21,-29 l -19,-38 h -150 c -83,0 -150,2 -150,5 0,3 9,24 21,46 11,23 19,43 16,45 -2,2 -14,-19 -27,-46 l -23,-50 h -149 c -81,0 -148,3 -148,7 0,8 174,354 237,471 42,76 47,82 76,82 18,0 259,-9 537,-20 z M 3204,9302 c 34,-35 96,-91 138,-123 71,-55 103,-98 84,-116 -18,-19 -263,218 -304,295 -39,73 -40,84 -5,40 14,-18 54,-62 87,-96 z m 1106,5 c 0,-130 -5,-147 -46,-147 -31,0 -58,82 -51,153 4,42 10,56 41,84 19,18 40,33 46,33 6,0 10,-46 10,-123 z M 3215,9194 c 171,-171 226,-204 247,-146 10,25 15,27 65,27 49,0 54,-2 49,-20 -16,-59 -27,-277 -18,-355 5,-47 8,-86 7,-88 -1,-2 -56,50 -122,115 -128,126 -195,218 -276,379 -45,90 -88,201 -86,226 0,7 5,4 12,-7 6,-11 61,-70 122,-131 z m 4415,101 c 0,-3 -61,-124 -135,-269 l -135,-264 -128,-6 c -70,-4 -135,-10 -144,-12 -10,-3 -18,-1 -18,4 0,5 59,129 130,275 l 131,266 127,4 c 70,1 137,4 150,5 12,1 22,0 22,-3 z m 227,-132 c -39,-76 -101,-194 -137,-263 l -65,-125 -129,-8 c -71,-4 -131,-5 -134,-2 -2,2 54,124 126,270 l 131,265 h 140 140 z m 353,131 c 0,-3 -15,-34 -34,-67 -18,-34 -77,-148 -130,-253 l -96,-191 -132,-7 c -72,-3 -132,-5 -133,-4 -1,2 56,121 128,266 l 131,262 h 133 c 73,0 133,-3 133,-6 z m -902,-16 c -2,-7 -63,-131 -136,-275 -113,-224 -136,-263 -155,-263 -12,0 -80,-5 -151,-10 -72,-5 -131,-8 -133,-6 -6,6 268,550 281,558 6,4 75,8 154,8 110,0 143,-3 140,-12 z m 1132,2 c 0,-5 -133,-265 -296,-577 -163,-312 -392,-753 -510,-978 l -214,-411 -137,-27 c -78,-15 -144,-33 -152,-42 -9,-9 -70,-122 -136,-253 l -120,-237 -155,-37 c -85,-20 -220,-53 -300,-72 -80,-19 -286,-69 -459,-110 -172,-42 -315,-75 -318,-73 -2,2 49,114 113,249 l 116,245 151,32 c 82,17 152,30 154,27 2,-2 -28,-68 -67,-147 -40,-79 -68,-139 -62,-134 5,6 39,69 77,140 37,72 72,135 79,142 6,7 57,22 113,34 57,13 101,24 99,27 -4,3 -148,-23 -190,-35 -14,-4 16,64 119,263 75,148 137,270 138,271 1,1 56,9 121,18 66,9 132,19 148,22 29,6 26,-2 -147,-347 -97,-193 -174,-354 -171,-357 2,-3 25,35 50,83 26,49 50,96 55,104 5,8 34,65 65,125 30,61 88,175 130,255 l 74,145 124,22 c 68,12 131,22 141,22 13,1 -11,-54 -110,-251 -191,-381 -243,-488 -239,-488 4,0 74,130 178,330 221,424 218,418 246,424 54,11 258,44 280,45 7,1 10,6 7,11 -4,6 -16,8 -26,5 -28,-9 -269,-42 -269,-37 0,11 253,493 261,498 12,7 199,33 242,34 h 27 l -25,-50 c -14,-27 -25,-53 -25,-57 1,-4 15,18 31,51 18,34 39,60 51,64 13,3 16,7 8,12 -17,11 238,500 263,508 12,3 15,7 7,12 -7,4 34,92 121,258 l 131,252 h 104 c 59,0 104,-4 104,-10 z m -1481,-17 c 0,-5 -60,-127 -132,-273 -110,-221 -136,-266 -157,-271 -16,-4 -18,-7 -7,-8 9,-1 17,-6 17,-11 0,-8 -276,-567 -284,-577 -1,-2 -27,-7 -57,-12 l -54,-9 48,-1 c 26,0 47,-6 47,-11 0,-6 -61,-131 -135,-279 l -134,-269 -73,-13 c -40,-6 -68,-14 -62,-16 6,-2 37,0 68,5 31,5 56,8 56,7 0,-7 -261,-535 -264,-535 -3,0 -68,-9 -146,-21 -78,-11 -144,-19 -146,-16 -4,4 433,905 920,1902 81,165 159,326 173,358 l 26,57 h 148 c 82,0 149,-3 148,-7 z m -703,-335 c -174,-365 -276,-568 -283,-568 -4,0 -25,15 -46,33 l -37,32 63,105 c 110,183 348,530 363,530 2,0 -25,-60 -60,-132 z m 1559,-407 c -70,-137 -132,-254 -138,-259 -7,-5 -55,-12 -107,-16 -52,-4 -110,-9 -128,-13 l -33,-5 130,260 130,260 53,6 c 49,6 98,9 186,14 l 33,2 z m -276,32 c -160,-310 -166,-321 -197,-327 -15,-3 -73,-8 -130,-12 l -103,-7 130,261 130,260 73,6 c 40,3 89,8 108,9 19,2 48,5 63,5 l 29,2 z m -333,-85 -135,-263 -137,-18 c -75,-10 -138,-16 -141,-14 -2,3 55,127 128,276 l 132,270 121,4 c 67,1 131,4 144,5 21,2 10,-24 -112,-260 z m -186,245 c 0,-5 -62,-129 -138,-278 l -138,-270 -79,-12 c -44,-6 -115,-14 -158,-18 l -78,-8 145,291 146,291 127,4 c 71,1 138,4 151,5 12,1 22,-1 22,-5 z m 996,-415 c -41,-79 -87,-155 -102,-168 l -27,-25 20,35 c 11,19 53,99 93,178 45,87 77,139 83,133 6,-6 -20,-65 -67,-153 z m -2086,-3 c 40,-30 79,-55 87,-55 7,0 13,-4 13,-8 0,-5 -31,-82 -68,-173 -86,-205 -83,-203 -205,-128 -47,30 -86,57 -87,62 0,16 175,357 184,357 2,0 36,-25 76,-55 z m 1420,-100 c 0,-5 -240,-487 -245,-493 -5,-6 -269,-41 -273,-37 -2,2 12,32 31,67 19,35 76,144 127,243 51,99 96,184 101,190 15,15 259,44 259,30 z m -300,-30 c 0,-3 -56,-118 -125,-255 -99,-199 -129,-251 -147,-255 -28,-6 -263,-45 -272,-45 -7,0 248,507 262,522 4,4 66,13 137,21 72,8 133,15 138,16 4,0 7,-1 7,-4 z m -333,-57 c -8,-18 -67,-139 -132,-269 l -118,-236 -152,-27 c -83,-14 -157,-26 -163,-26 -7,0 51,126 128,280 120,239 143,280 163,281 25,1 281,26 285,28 1,0 -4,-14 -11,-31 z m -1024,-224 44,-27 -121,-238 c -67,-130 -122,-236 -123,-235 -4,4 30,181 51,261 31,115 85,265 97,265 4,0 28,-12 52,-26 z m -9,-511 c -118,-240 -214,-445 -214,-455 0,-10 7,-21 15,-24 9,-4 81,3 162,15 80,12 147,20 149,18 1,-1 -51,-114 -117,-251 -65,-137 -119,-255 -119,-263 0,-7 7,-16 14,-19 18,-7 1303,303 1331,321 11,7 74,121 139,253 l 120,240 140,29 c 78,17 143,29 145,27 2,-2 -60,-124 -138,-272 l -141,-269 -388,-98 c -479,-121 -480,-121 -486,-143 -8,-25 -144,-55 -183,-40 -24,9 -105,-10 -542,-121 -282,-73 -515,-130 -516,-129 -2,2 785,1584 801,1610 3,4 14,8 24,8 15,0 -21,-80 -196,-437 z m 759,180 c -3,-10 -62,-130 -131,-268 l -127,-250 -158,-31 c -110,-22 -160,-28 -163,-20 -4,10 248,521 266,540 8,8 226,43 287,45 25,1 30,-2 26,-16 z M 5328,6866 c -100,-201 -184,-364 -185,-362 -7,7 353,726 363,726 2,0 -78,-164 -178,-364 z m -195,-391 c -3,-9 -8,-14 -10,-11 -3,3 -2,9 2,15 9,16 15,13 8,-4 z"
       inkscape:connector-curvature="0" /><path
       id="path5468"
       d="m 5290,10949 c -66,-27 -90,-89 -52,-135 57,-72 207,-72 256,-2 22,31 20,52 -9,86 -34,40 -148,70 -195,51 z m 102,-39 c 85,-24 100,-73 31,-105 -31,-15 -43,-16 -90,-6 -76,18 -103,61 -63,101 22,22 64,26 122,10 z"
       inkscape:connector-curvature="0" /><path
       id="path5470"
       d="m 4620,10404 c -19,-8 -47,-27 -62,-41 -24,-23 -28,-35 -28,-79 0,-70 16,-101 62,-125 77,-39 162,-16 209,60 48,74 34,138 -39,179 -46,25 -92,28 -142,6 z m 141,-45 c 56,-40 30,-132 -48,-170 -36,-17 -48,-19 -82,-9 -50,13 -71,42 -71,97 0,48 15,67 75,95 46,21 83,18 126,-13 z"
       inkscape:connector-curvature="0" /><path
       id="path5472"
       d="m 3830,8740 c -26,-26 -25,-64 4,-127 39,-82 139,-130 179,-85 21,23 22,72 2,120 -39,93 -136,141 -185,92 z m 111,-58 c 34,-31 42,-46 46,-85 5,-43 4,-47 -16,-47 -30,0 -98,65 -111,106 -24,73 17,86 81,26 z"
       inkscape:connector-curvature="0" /><path
       id="path5474"
       d="m 7706,9433 c -6,-14 -5,-15 5,-6 7,7 10,15 7,18 -3,3 -9,-2 -12,-12 z"
       inkscape:connector-curvature="0" /><path
       id="path5476"
       d="m 7566,8033 c -6,-14 -5,-15 5,-6 7,7 10,15 7,18 -3,3 -9,-2 -12,-12 z"
       inkscape:connector-curvature="0" /><path
       id="path5478"
       d="m 7458,7743 c 6,-2 18,-2 25,0 6,3 1,5 -13,5 -14,0 -19,-2 -12,-5 z"
       inkscape:connector-curvature="0" /></g></svg>
